<mxfile host="app.diagrams.net" modified="2023-08-13T17:40:01.259Z" agent="Mozilla/5.0 (Macintosh; Intel Mac OS X 10_15_7) AppleWebKit/537.36 (KHTML, like Gecko) Chrome/115.0.0.0 Safari/537.36" etag="muz_2UXT5OvFsVPmvdUA" version="21.6.8" type="github">
  <diagram name="Page-1" id="58veKRzf7vGz37UtOcN2">
    <mxGraphModel dx="1570" dy="995" grid="1" gridSize="10" guides="1" tooltips="1" connect="1" arrows="1" fold="1" page="1" pageScale="1" pageWidth="827" pageHeight="1169" math="0" shadow="0">
      <root>
        <mxCell id="0" />
        <mxCell id="1" parent="0" />
      </root>
    </mxGraphModel>
  </diagram>
</mxfile>
